{"accessors" : [{"bufferView" : 0, "byteOffset" : 0, "componentType" : 5125, "count" : 147456, "type" : "SCALAR", "max" : [122750], "min" : [0]}, {"bufferView" : 1, "byteOffset" : 0, "componentType" : 5126, "count" : 122751, "type" : "VEC3", "max" : [1.3422443866729736, 1.5409328937530518, 1.3226349353790283], "min" : [-1.3253027200698853, -1.3204396963119507, -1.3256961107254028], "name" : "POSITION"}], "asset" : {"generator" : "Aspose.3D 22.1", "version" : "2.0"}, "buffers" : [{"uri" : "data:application/octet-stream;base64,", "byteLength" : 2359304}], "bufferViews" : [{"buffer" : 0, "byteOffset" : 0, "byteLength" : 589824, "target" : 34963}, {"buffer" : 0, "byteOffset" : 589828, "byteLength" : 1769472, "byteStride" : 12, "target" : 34962}], "materials" : [{"name" : "Material", "pbrMetallicRoughness" : {"baseColorFactor" : [0.800000011920929, 0.800000011920929, 0.800000011920929, 1], "metallicFactor" : 0, "roughnessFactor" : 0.4000000059604645}, "emissiveFactor" : [0, 0, 0], "alphaMode" : "OPAQUE", "doubleSided" : true}], "meshes" : [{"primitives" : [{"attributes" : {"POSITION" : 1}, "indices" : 0, "material" : 0, "mode" : 4}]}], "nodes" : [{"mesh" : 0, "name" : "Quad Sphere"}], "scene" : 0, "scenes" : [{"nodes" : [0]}]}