{"accessors" : [{"bufferView" : 0, "byteOffset" : 0, "componentType" : 5123, "count" : 6, "type" : "SCALAR", "max" : [4], "min" : [0]}, {"bufferView" : 1, "byteOffset" : 0, "componentType" : 5126, "count" : 5, "type" : "VEC3", "max" : [6.083834171295166, 0, 6.083834171295166], "min" : [-6.083834171295166, 0, -6.083834171295166], "name" : "POSITION"}, {"bufferView" : 0, "byteOffset" : 12, "componentType" : 5123, "count" : 576, "type" : "SCALAR", "max" : [477], "min" : [0]}, {"bufferView" : 2, "byteOffset" : 0, "componentType" : 5126, "count" : 478, "type" : "VEC3", "max" : [1.4235429763793945, 1.370885968208313, 1.7960439920425415], "min" : [-1.759896993637085, -0.31270599365234375, -1.8322299718856812], "name" : "POSITION"}, {"bufferView" : 2, "byteOffset" : 12, "componentType" : 5126, "count" : 478, "type" : "VEC2", "max" : [1, -0], "min" : [0, -0.8662179708480835], "name" : "TEXCOORD_0"}], "asset" : {"generator" : "Aspose.3D 22.1", "version" : "2.0"}, "buffers" : [{"uri" : "data:application/octet-stream;base64,", "byteLength" : 12768}], "bufferViews" : [{"buffer" : 0, "byteOffset" : 0, "byteLength" : 1164, "target" : 34963}, {"buffer" : 0, "byteOffset" : 1168, "byteLength" : 72, "byteStride" : 12, "target" : 34962}, {"buffer" : 0, "byteOffset" : 1244, "byteLength" : 11520, "byteStride" : 20, "target" : 34962}], "meshes" : [{"primitives" : [{"attributes" : {"POSITION" : 1}, "indices" : 0, "mode" : 4}], "name" : ""}, {"primitives" : [{"attributes" : {"POSITION" : 3, "TEXCOORD_0" : 4}, "indices" : 2, "mode" : 4}], "name" : ""}], "nodes" : [{"mesh" : 0, "name" : "Plane"}, {"mesh" : 1, "name" : "Cube"}], "scene" : 0, "scenes" : [{"nodes" : [0, 1]}]}