{"accessors" : [{"bufferView" : 0, "byteOffset" : 0, "componentType" : 5123, "count" : 4938, "type" : "SCALAR", "max" : [4081], "min" : [0]}, {"bufferView" : 1, "byteOffset" : 0, "componentType" : 5126, "count" : 4082, "type" : "VEC3", "max" : [-8.984310150146484, 1.7993340492248535, 2.57094407081604], "min" : [-11.40392017364502, 0.03449099883437157, -0.45796099305152893], "name" : "POSITION"}, {"bufferView" : 1, "byteOffset" : 12, "componentType" : 5126, "count" : 4082, "type" : "VEC3", "max" : [0.995932400226593, 0.9999700784683228, 0.9848229885101318], "min" : [-0.9956565499305725, -0.9996939301490784, -0.9979804158210754], "name" : "NORMAL"}, {"bufferView" : 1, "byteOffset" : 24, "componentType" : 5126, "count" : 4082, "type" : "VEC2", "max" : [0.9791349768638611, -0.022607000544667244], "min" : [0.014132999815046787, -0.9771329760551453], "name" : "TEXCOORD_0"}], "asset" : {"generator" : "Aspose.3D 22.1", "version" : "2.0"}, "buffers" : [{"uri" : "data:application/octet-stream;base64,", "byteLength" : 167900}], "bufferViews" : [{"buffer" : 0, "byteOffset" : 0, "byteLength" : 9876, "target" : 34963}, {"buffer" : 0, "byteOffset" : 9880, "byteLength" : 158016, "byteStride" : 32, "target" : 34962}], "images" : [{"uri" : "E:/MAYA/scenes/rocks/New folder/initialShadingGroup_Base_Color.png"}], "materials" : [{"name" : "", "pbrMetallicRoughness" : {"baseColorFactor" : [1, 1, 1, 1], "baseColorTexture" : {"index" : 0, "texCoord" : 0}, "metallicFactor" : 0, "roughnessFactor" : 0}, "emissiveFactor" : [0, 0, 0], "alphaMode" : "OPAQUE", "doubleSided" : false}], "meshes" : [{"primitives" : [{"attributes" : {"POSITION" : 1, "NORMAL" : 2, "TEXCOORD_0" : 3}, "indices" : 0, "material" : 0, "mode" : 4}], "name" : ""}], "nodes" : [{"mesh" : 0, "name" : "rock_low_poly:pCube1"}], "samplers" : [{"magFilter" : 9729, "minFilter" : 9729, "wrapS" : 10497, "wrapT" : 10497}], "scene" : 0, "scenes" : [{"nodes" : [0]}], "textures" : [{"sampler" : 0, "source" : 0}]}