{"accessors" : [{"bufferView" : 0, "byteOffset" : 0, "componentType" : 5123, "count" : 3840, "type" : "SCALAR", "max" : [2885], "min" : [0]}, {"bufferView" : 1, "byteOffset" : 0, "componentType" : 5126, "count" : 2886, "type" : "VEC3", "max" : [6.35331392288208, 0.8553460240364075, 12.812915802001953], "min" : [-6.35331392288208, -0.8553460240364075, 10.559186935424805], "name" : "POSITION"}, {"bufferView" : 1, "byteOffset" : 12, "componentType" : 5126, "count" : 2886, "type" : "VEC2", "max" : [0.5012000203132629, -0.864300012588501], "min" : [0.007400000002235174, -0.9901000261306763], "name" : "TEXCOORD_0"}, {"bufferView" : 1, "byteOffset" : 20, "componentType" : 5126, "count" : 2886, "type" : "VEC3", "max" : [0.9392134547233582, 0.9996715784072876, 1.0000044107437134], "min" : [-0.9392134547233582, -0.9996715784072876, -1.0000044107437134], "name" : "NORMAL"}, {"bufferView" : 0, "byteOffset" : 7680, "componentType" : 5123, "count" : 1872, "type" : "SCALAR", "max" : [1497], "min" : [0]}, {"bufferView" : 2, "byteOffset" : 0, "componentType" : 5126, "count" : 1498, "type" : "VEC3", "max" : [2.077263116836548, 0.7604100108146667, 30.26821517944336], "min" : [-2.077263116836548, -0.7604100108146667, 25.67839241027832], "name" : "POSITION"}, {"bufferView" : 2, "byteOffset" : 12, "componentType" : 5126, "count" : 1498, "type" : "VEC2", "max" : [0.2969000041484833, -0.39469999074935913], "min" : [0.01769999973475933, -0.739300012588501], "name" : "TEXCOORD_0"}, {"bufferView" : 2, "byteOffset" : 20, "componentType" : 5126, "count" : 1498, "type" : "VEC3", "max" : [0.9964954853057861, 0.9979309439659119, 1.0000044107437134], "min" : [-0.9964954853057861, -0.9979309439659119, -1.0000044107437134], "name" : "NORMAL"}, {"bufferView" : 0, "byteOffset" : 11424, "componentType" : 5123, "count" : 960, "type" : "SCALAR", "max" : [799], "min" : [0]}, {"bufferView" : 3, "byteOffset" : 0, "componentType" : 5126, "count" : 800, "type" : "VEC3", "max" : [1.7000000476837158, 0.7676460146903992, 28.805076599121094], "min" : [-1.7000000476837158, -0.7676460146903992, 11.886924743652344], "name" : "POSITION"}, {"bufferView" : 3, "byteOffset" : 12, "componentType" : 5126, "count" : 800, "type" : "VEC2", "max" : [0.9610999822616577, -0.03970000147819519], "min" : [0.4253999888896942, -0.574999988079071], "name" : "TEXCOORD_0"}, {"bufferView" : 3, "byteOffset" : 20, "componentType" : 5126, "count" : 800, "type" : "VEC3", "max" : [0.999987006187439, 1.0000007152557373, 0.05460069328546524], "min" : [-0.999987006187439, -1.0000007152557373, 0.002700001932680607], "name" : "NORMAL"}, {"bufferView" : 0, "byteOffset" : 13344, "componentType" : 5123, "count" : 1116, "type" : "SCALAR", "max" : [901], "min" : [0]}, {"bufferView" : 4, "byteOffset" : 0, "componentType" : 5126, "count" : 902, "type" : "VEC3", "max" : [3.6767890453338623, 0.5919309854507446, 12.241557121276855], "min" : [-3.6767890453338623, -0.5919309854507446, -30.34036636352539], "name" : "POSITION"}, {"bufferView" : 4, "byteOffset" : 12, "componentType" : 5126, "count" : 902, "type" : "VEC2", "max" : [0.9782999753952026, -0.02319999970495701], "min" : [0.022299999371170998, -0.9793000221252441], "name" : "TEXCOORD_0"}, {"bufferView" : 4, "byteOffset" : 20, "componentType" : 5126, "count" : 902, "type" : "VEC3", "max" : [1.0000044107437134, 1.0000044107437134, 0.025901785120368004], "min" : [-1.0000044107437134, -1.0000044107437134, -1.0000044107437134], "name" : "NORMAL"}], "asset" : {"generator" : "Aspose.3D 22.1", "version" : "2.0"}, "buffers" : [{"uri" : "data:application/octet-stream;base64,", "byteLength" : 264812}], "bufferViews" : [{"buffer" : 0, "byteOffset" : 0, "byteLength" : 15576, "target" : 34963}, {"buffer" : 0, "byteOffset" : 15580, "byteLength" : 122880, "byteStride" : 32, "target" : 34962}, {"buffer" : 0, "byteOffset" : 138464, "byteLength" : 59904, "byteStride" : 32, "target" : 34962}, {"buffer" : 0, "byteOffset" : 198372, "byteLength" : 30720, "byteStride" : 32, "target" : 34962}, {"buffer" : 0, "byteOffset" : 229096, "byteLength" : 35712, "byteStride" : 32, "target" : 34962}], "meshes" : [{"primitives" : [{"attributes" : {"POSITION" : 1, "TEXCOORD_0" : 2, "NORMAL" : 3}, "indices" : 0, "mode" : 4}], "name" : ""}, {"primitives" : [{"attributes" : {"POSITION" : 5, "TEXCOORD_0" : 6, "NORMAL" : 7}, "indices" : 4, "mode" : 4}], "name" : ""}, {"primitives" : [{"attributes" : {"POSITION" : 9, "TEXCOORD_0" : 10, "NORMAL" : 11}, "indices" : 8, "mode" : 4}], "name" : ""}, {"primitives" : [{"attributes" : {"POSITION" : 13, "TEXCOORD_0" : 14, "NORMAL" : 15}, "indices" : 12, "mode" : 4}], "name" : ""}], "nodes" : [{"mesh" : 0, "name" : "Garde_Plane.002"}, {"mesh" : 1, "name" : "Pommeau_Plane.001"}, {"mesh" : 2, "name" : "Manche_Circle"}, {"mesh" : 3, "name" : "Lame_Plane"}], "scene" : 0, "scenes" : [{"nodes" : [0, 1, 2, 3]}]}